<svg xmlns="http://www.w3.org/2000/svg" viewBox="0 0 220 220" role="img" aria-label="yellow flower sticker">
  <defs>
    <filter id="shadow" x="-30%" y="-30%" width="160%" height="160%">
      <feDropShadow dx="0" dy="8" stdDeviation="6" flood-color="#5b4317" flood-opacity=".22"/>
    </filter>
    <linearGradient id="petal" x1="0" x2="1" y1="0" y2="1">
      <stop offset="0" stop-color="#fff7c8"/>
      <stop offset=".42" stop-color="#ffd65c"/>
      <stop offset="1" stop-color="#dc8f22"/>
    </linearGradient>
    <linearGradient id="leaf" x1="0" x2="1" y1="0" y2="1">
      <stop offset="0" stop-color="#77872f"/>
      <stop offset="1" stop-color="#293d19"/>
    </linearGradient>
  </defs>
  <g filter="url(#shadow)">
    <path d="M34 154C42 130 61 115 91 109c-9 31-27 49-57 45z" fill="none" stroke="#fffaf0" stroke-width="20" stroke-linecap="round" stroke-linejoin="round"/>
    <path d="M95 111C89 68 103 35 135 15c10 41-2 74-40 96z" fill="none" stroke="#fffaf0" stroke-width="20" stroke-linejoin="round"/>
    <path d="M111 115c7-47 31-77 75-90-1 45-25 75-75 90z" fill="none" stroke="#fffaf0" stroke-width="20" stroke-linejoin="round"/>
    <path d="M107 126c37-30 75-38 111-22-26 34-62 42-111 22z" fill="none" stroke="#fffaf0" stroke-width="20" stroke-linejoin="round"/>
    <path d="M91 123c-37-19-55-47-54-85 35 13 54 42 54 85z" fill="none" stroke="#fffaf0" stroke-width="20" stroke-linejoin="round"/>
    <path d="M87 137c-19 28-43 43-74 45 10-31 34-47 74-45z" fill="none" stroke="#fffaf0" stroke-width="20" stroke-linejoin="round"/>
    <path d="M67 157c38-6 67-24 88-54" fill="none" stroke="#fffaf0" stroke-width="18" stroke-linecap="round"/>

    <path d="M34 154C42 130 61 115 91 109c-9 31-27 49-57 45z" fill="url(#leaf)"/>
    <path d="M86 121c-22-22-27-50-15-84 26 21 31 50 15 84z" fill="url(#petal)"/>
    <path d="M95 111C89 68 103 35 135 15c10 41-2 74-40 96z" fill="url(#petal)"/>
    <path d="M111 115c7-47 31-77 75-90-1 45-25 75-75 90z" fill="url(#petal)"/>
    <path d="M107 126c37-30 75-38 111-22-26 34-62 42-111 22z" fill="url(#petal)"/>
    <path d="M91 123c-37-19-55-47-54-85 35 13 54 42 54 85z" fill="url(#petal)"/>
    <path d="M87 137c-19 28-43 43-74 45 10-31 34-47 74-45z" fill="url(#petal)"/>
    <path d="M67 157c38-6 67-24 88-54" fill="none" stroke="#6e551f" stroke-width="7" stroke-linecap="round"/>
    <path d="M116 129c-18-7-28-14-31-25 19-2 32 5 39 21z" fill="#e99326"/>
    <path d="M111 63c6 17 3 34-9 51" fill="none" stroke="#fff1a8" stroke-width="4" stroke-linecap="round" opacity=".65"/>
    <path d="M145 62c-4 17-16 34-34 51" fill="none" stroke="#fff1a8" stroke-width="4" stroke-linecap="round" opacity=".65"/>
    <path d="M165 111c-17 5-36 5-56 0" fill="none" stroke="#fff1a8" stroke-width="4" stroke-linecap="round" opacity=".55"/>
  </g>
  <path d="M194 36l4 11 11 4-11 4-4 11-4-11-11-4 11-4zM29 26l3 8 8 3-8 3-3 8-3-8-8-3 8-3z" fill="#f5c96a" opacity=".8"/>
</svg>
